<?xml version="1.0"?><svg fill="#00aeff" xmlns="http://www.w3.org/2000/svg"  viewBox="0 0 24 24" width="384px" height="384px">    <path d="M 12 0 L 8 4 L 12 8 L 12 5 C 15.859 5 19 8.14 19 12 C 19 12.88 18.82925 13.720094 18.53125 14.496094 L 20.046875 16.009766 C 20.651875 14.800766 21 13.442 21 12 C 21 7.038 16.963 3 12 3 L 12 0 z M 3.953125 7.9902344 C 3.348125 9.1992344 3 10.558 3 12 C 3 16.962 7.037 21 12 21 L 12 24 L 16 20 L 12 16 L 12 19 C 8.141 19 5 15.86 5 12 C 5 11.12 5.17075 10.279906 5.46875 9.5039062 L 3.953125 7.9902344 z"/></svg>
